<svg width="67" height="84" viewBox="0 0 67 84" fill="none" xmlns="http://www.w3.org/2000/svg">
<g style="mix-blend-mode:luminosity" clip-path="url(#clip0_8_633)">
<path d="M0.750663 0C0.0429202 0 -0.484352 0.629183 -0.421489 1.39798L5.54469 74.4026C5.60756 75.1716 6.21664 75.9697 6.89882 76.1763L32.2163 83.845C32.8984 84.0515 34.0141 84.0515 34.6963 83.8454L60.0908 76.1642C60.7728 75.9578 61.3827 75.1598 61.4454 74.391L67.4215 1.39798C67.4848 0.629183 66.9569 0 66.2492 0H0.750663ZM54.7156 16.7433C54.6593 17.4291 54.5618 18.6197 54.4989 19.3887L54.3418 21.3041C54.2785 22.0728 54.1884 23.1722 54.1409 23.7469C54.0935 24.3218 54.0485 24.7921 54.0402 24.7921C54.0323 24.7921 53.4465 24.7921 52.7389 24.7921H34.7867C34.0789 24.7921 33.4941 24.7921 33.4864 24.7921C33.4787 24.7921 32.8932 24.7921 32.1855 24.7921H22.7307C22.0229 24.7921 21.4957 25.4213 21.5585 26.1901L22.11 32.9151C22.1729 33.6837 22.8036 34.3131 23.5112 34.3131H32.1856C32.8934 34.3131 33.4787 34.3131 33.4865 34.3131C33.4944 34.3131 34.0792 34.3131 34.7868 34.3131H49.6969C50.4047 34.3131 51.4998 34.3131 52.1306 34.3131C52.7609 34.3131 53.2302 34.8743 53.1731 35.5601C53.1156 36.2459 53.0176 37.4368 52.9549 38.2055L51.1816 59.8864C51.1183 60.6554 51.0383 61.6377 51.0038 62.0695C50.9686 62.501 50.3821 63.0228 49.7001 63.2292L34.74 67.7544C34.058 67.9605 33.4915 68.1311 33.4808 68.1338C33.4703 68.1362 32.9039 67.9692 32.2216 67.763L17.2456 63.2296C16.5636 63.0232 15.9542 62.2252 15.8915 61.4562L14.9275 49.6527C14.8646 48.8837 15.3925 48.2545 16.1002 48.2545H17.467C18.1747 48.2545 19.3327 48.2545 20.0403 48.2545H22.0784C22.7862 48.2545 23.4163 48.8837 23.4796 49.6527L23.8577 54.2733C23.9206 55.0423 24.5307 55.8359 25.2141 56.0372L32.2192 58.1009C32.9021 58.3022 33.4637 58.467 33.4668 58.467C33.47 58.467 34.0313 58.3019 34.7145 58.1006L41.7322 56.0319C42.4151 55.8306 43.0259 55.0367 43.0892 54.2681L43.8502 45.0105C43.9135 44.2415 43.3862 43.6123 42.6785 43.6123H34.7868C34.0791 43.6123 33.4942 43.6123 33.4865 43.6123C33.4789 43.6123 32.8934 43.6123 32.1856 43.6123H15.7187C15.0109 43.6123 14.3808 42.983 14.3179 42.2143L12.4507 19.3889C12.3878 18.6199 12.2904 17.4296 12.234 16.7435C12.1782 16.0577 12.711 15.4964 13.4187 15.4964H32.1856C32.8934 15.4964 33.4787 15.4964 33.4865 15.4964C33.4944 15.4964 34.0792 15.4964 34.7868 15.4964H53.531C54.2386 15.4961 54.7717 16.0572 54.7156 16.7433Z" fill="#DD512A"/>
</g>
<defs>
<clipPath id="clip0_8_633">
<rect width="67" height="84" fill="white"/>
</clipPath>
</defs>
</svg>
