<svg width="75" height="78" viewBox="0 0 75 78" fill="none" xmlns="http://www.w3.org/2000/svg">
<g style="mix-blend-mode:luminosity" clip-path="url(#clip0_8_602)">
<path d="M5.07892 18.1637C-1.56263 28.4805 -0.735191 41.9033 4.33747 52.8664C4.45823 53.1294 4.58462 53.3877 4.70938 53.647C4.78885 53.8102 4.86388 53.9784 4.94661 54.1397C4.99308 54.2368 5.04562 54.3315 5.09431 54.4243C5.18104 54.5994 5.26924 54.7651 5.35922 54.936C5.51684 55.236 5.67859 55.5344 5.84346 55.8327C5.93492 55.9967 6.0252 56.1606 6.11947 56.3244C6.30239 56.6437 6.48975 56.9604 6.6817 57.2751C6.76162 57.4096 6.83931 57.5441 6.9213 57.674C7.18577 58.1008 7.45616 58.5268 7.73498 58.9447C7.74223 58.9551 7.75022 58.9665 7.75836 58.9769C7.80246 59.0446 7.85145 59.1105 7.896 59.1773C8.13708 59.5372 8.3863 59.892 8.63745 60.2441C8.73009 60.3718 8.82407 60.5 8.91716 60.6283C9.14152 60.9337 9.37017 61.2365 9.60252 61.539C9.68954 61.6518 9.77671 61.7653 9.86462 61.8763C10.1763 62.2729 10.4945 62.6683 10.8201 63.0561C10.8257 63.0631 10.8332 63.0709 10.8393 63.0778C10.8525 63.0943 10.8642 63.1047 10.8759 63.1204C11.1933 63.4951 11.5179 63.8621 11.847 64.2281C11.9488 64.3407 12.0533 64.4544 12.1579 64.5672C12.4128 64.8438 12.6716 65.1154 12.9331 65.3886C13.0394 65.4971 13.1446 65.6089 13.2501 65.7138C13.5996 66.0696 13.9524 66.4181 14.3123 66.7582C14.3187 66.7651 14.3231 66.7704 14.3292 66.7729C14.3901 66.8319 14.4535 66.8884 14.5137 66.943C14.8312 67.2403 15.1538 67.5353 15.4788 67.8251C15.6112 67.9405 15.7452 68.055 15.8785 68.1694C16.1442 68.3994 16.4125 68.6257 16.683 68.8486C16.8258 68.9665 16.9691 69.0845 17.1131 69.2026C17.4113 69.4385 17.7117 69.6733 18.0156 69.9016C18.1264 69.9883 18.2334 70.0715 18.3447 70.154C18.3752 70.1774 18.4033 70.2017 18.4345 70.2241C18.7227 70.4375 19.0167 70.6449 19.3108 70.8505C19.4372 70.9413 19.5628 71.0351 19.6904 71.1235C20.1418 71.4316 20.5997 71.7368 21.0626 72.0327C21.1887 72.1098 21.3154 72.1863 21.4418 72.2634C21.782 72.4758 22.1243 72.6841 22.4718 72.8879C22.6592 72.9972 22.8522 73.1003 23.0412 73.2045C23.2867 73.3441 23.5298 73.4846 23.7786 73.6181C23.8352 73.6493 23.8938 73.6789 23.9496 73.7075C24.049 73.7595 24.1501 73.8109 24.2509 73.8654C24.6368 74.0649 25.0261 74.26 25.4185 74.4499C25.5025 74.4897 25.5831 74.5297 25.6661 74.5688C26.116 74.7812 26.5698 74.9868 27.0289 75.1821C27.1388 75.2297 27.25 75.2756 27.3608 75.3235C27.785 75.4996 28.2148 75.6738 28.646 75.8379C28.7009 75.8587 28.7536 75.8777 28.8076 75.8976C29.2815 76.0772 29.7598 76.2428 30.2417 76.4051C30.3564 76.4416 30.472 76.4816 30.5875 76.5179C31.0779 76.6774 31.5618 76.8674 32.0682 76.9688C64.1861 83.2991 73.5157 56.107 73.5157 56.107C65.6806 67.1405 51.7718 70.0515 38.5939 66.8107C38.0943 66.6893 37.6103 66.521 37.1231 66.3649C36.9993 66.325 36.8781 66.2852 36.7561 66.2444C36.2806 66.0865 35.8091 65.921 35.3401 65.7466C35.2759 65.7223 35.2109 65.6964 35.1455 65.6709C34.7255 65.5115 34.3105 65.3432 33.8967 65.1704C33.7799 65.1202 33.6632 65.0725 33.5468 65.0221C33.0935 64.8288 32.6429 64.6266 32.1986 64.4159C32.1067 64.3741 32.0192 64.33 31.9294 64.2865C31.5471 64.1 31.169 63.9119 30.7915 63.7157C30.6832 63.6586 30.5739 63.6031 30.4632 63.5451C30.1678 63.3897 29.875 63.224 29.5837 63.0618C29.3883 62.9508 29.1897 62.8451 28.9968 62.7296C28.6404 62.5232 28.2905 62.3089 27.9426 62.0904C27.8242 62.0184 27.7051 61.9498 27.5862 61.876C27.1231 61.5812 26.6657 61.2759 26.2131 60.9662C26.0884 60.8804 25.966 60.7885 25.8428 60.7C25.5146 60.4709 25.1875 60.2385 24.8661 59.9973C24.7594 59.921 24.6559 59.836 24.5511 59.7588C24.2401 59.522 23.9328 59.281 23.6274 59.0372C23.4893 58.927 23.3525 58.8125 23.2182 58.7022C22.9385 58.4708 22.6601 58.2384 22.3848 57.9979C22.2608 57.8912 22.136 57.7837 22.0132 57.6761C21.6629 57.3648 21.317 57.0526 20.9752 56.7315C20.9395 56.6968 20.9006 56.6639 20.8616 56.6283C20.4924 56.2771 20.1289 55.917 19.7706 55.5553C19.6663 55.4478 19.5652 55.3437 19.4632 55.2353C19.1973 54.963 18.9361 54.6871 18.6793 54.4052C18.5766 54.2942 18.473 54.184 18.3719 54.0739C18.045 53.7113 17.7243 53.3453 17.4098 52.9732C17.3941 52.955 17.3777 52.9385 17.3625 52.9185C17.0298 52.5255 16.7048 52.124 16.3866 51.718C16.3003 51.607 16.2165 51.4995 16.131 51.3901C15.8939 51.0812 15.6588 50.768 15.4292 50.4516C15.3425 50.3388 15.2564 50.2216 15.1711 50.1055C14.8951 49.7177 14.6247 49.3319 14.3598 48.9379C7.0431 38.1529 4.41457 23.2752 10.262 11.0571" fill="#010101"/>
<path d="M25.6947 9.47146C20.8917 16.9424 21.1526 26.9416 24.8991 34.8429C25.5275 36.1673 26.2337 37.452 27.0237 38.6758C27.7431 39.7905 28.5405 41.1167 29.4954 42.0117C29.8421 42.4237 30.2037 42.8262 30.5732 43.221C30.6668 43.3251 30.7622 43.4232 30.8577 43.5254C31.216 43.9002 31.5811 44.2705 31.9583 44.6296C31.9739 44.6435 31.9876 44.6598 32.0033 44.6712C32.0073 44.6763 32.0113 44.6782 32.0137 44.6833C32.431 45.0781 32.8618 45.4588 33.2996 45.8327C33.3967 45.9125 33.493 45.9966 33.5913 46.079C34.0298 46.4424 34.4773 46.8007 34.9363 47.1408C34.9499 47.151 34.9616 47.1616 34.9752 47.1738C35.1775 47.3238 35.3841 47.4651 35.5888 47.6101C35.6875 47.6796 35.781 47.7533 35.8802 47.8182C36.2075 48.0448 36.5395 48.266 36.8769 48.4784C36.9246 48.5106 36.9716 48.5365 37.0178 48.5661C37.3086 48.7473 37.6036 48.926 37.8994 49.0986C38.0026 49.1619 38.1076 49.2165 38.2129 49.2755C38.4171 49.391 38.6213 49.5079 38.8295 49.6207C38.8596 49.6364 38.8921 49.6519 38.9222 49.6658C39.3455 49.8912 39.7729 50.1082 40.2086 50.3128C40.3014 50.357 40.3975 50.3968 40.4927 50.4394C40.8406 50.599 41.1929 50.7553 41.546 50.9018C41.6961 50.9634 41.8477 51.0215 41.9978 51.0815C42.3184 51.2099 42.6411 51.3276 42.9657 51.4457C43.1125 51.4959 43.2565 51.5481 43.4035 51.5965C43.8652 51.7509 44.3215 51.9468 44.8029 52.0335C69.6008 56.4747 75.3263 35.8375 75.3263 35.8375C70.165 43.8695 60.1709 47.7044 49.506 44.7118C49.0326 44.5774 48.5658 44.4308 48.1021 44.2729C47.9601 44.2262 47.8205 44.1758 47.6799 44.1254C47.35 44.0101 47.0222 43.887 46.6972 43.7596C46.5483 43.7013 46.3998 43.6425 46.2538 43.5817C45.8975 43.4334 45.5455 43.2806 45.1964 43.1202C45.1013 43.076 45.0046 43.0369 44.9115 42.9901C44.4738 42.7846 44.0428 42.5669 43.6175 42.3413C43.3987 42.2249 43.1841 42.1028 42.9691 41.984C42.8446 41.9138 42.7194 41.8443 42.5947 41.7749C42.3182 41.6126 42.0441 41.4452 41.7733 41.2744C41.7095 41.2346 41.6425 41.1973 41.5775 41.1546C41.2414 40.9422 40.9106 40.7237 40.5831 40.4989C40.482 40.4287 40.385 40.3532 40.2839 40.282C40.0677 40.1304 39.8517 39.9768 39.6398 39.8215C39.1828 39.4816 38.7378 39.1242 38.2996 38.7616C38.1985 38.6757 38.097 38.5915 37.9978 38.5056C33.3292 34.5217 29.6298 29.0771 27.8706 22.9047C26.0268 16.5016 26.4238 9.31598 29.6181 3.48364" fill="#010101"/>
<path d="M43.0334 2.9774C40.2021 7.48094 39.924 13.074 41.8887 18.0484C43.9603 23.3283 48.2057 27.4701 53.1611 29.433C53.3653 29.5154 53.5691 29.5891 53.7766 29.6646C53.8668 29.695 53.9563 29.728 54.0477 29.7566C54.3396 29.8563 54.6297 29.9718 54.9314 30.0332C68.6239 32.893 72.3378 22.4382 73.3266 20.8994C70.0728 25.9623 64.606 27.1777 57.8975 25.4186C57.3674 25.278 56.7848 25.0717 56.2743 24.8756C55.6195 24.624 54.9743 24.336 54.3468 24.0108C53.1559 23.3923 52.0207 22.6412 50.9674 21.7824C44.965 16.8591 41.2354 7.46782 45.1525 -0.18103" fill="#010101"/>
</g>
<defs>
<clipPath id="clip0_8_602">
<rect width="75" height="78" fill="white"/>
</clipPath>
</defs>
</svg>
